<svg width="35" height="35" viewBox="0 0 35 35" fill="none" xmlns="http://www.w3.org/2000/svg">
<path d="M16.0416 13.125H18.9583V10.2084H16.0416M17.5 29.1667C11.0687 29.1667 5.83329 23.9313 5.83329 17.5C5.83329 11.0688 11.0687 5.83335 17.5 5.83335C23.9312 5.83335 29.1666 11.0688 29.1666 17.5C29.1666 23.9313 23.9312 29.1667 17.5 29.1667ZM17.5 2.91669C15.5848 2.91669 13.6885 3.2939 11.9192 4.02678C10.1498 4.75966 8.54217 5.83386 7.18799 7.18805C4.45308 9.92295 2.91663 13.6323 2.91663 17.5C2.91663 21.3678 4.45308 25.0771 7.18799 27.812C8.54217 29.1662 10.1498 30.2404 11.9192 30.9733C13.6885 31.7061 15.5848 32.0834 17.5 32.0834C21.3677 32.0834 25.077 30.5469 27.8119 27.812C30.5468 25.0771 32.0833 21.3678 32.0833 17.5C32.0833 15.5849 31.7061 13.6886 30.9732 11.9192C30.2403 10.1499 29.1661 8.54223 27.8119 7.18805C26.4577 5.83386 24.8501 4.75966 23.0808 4.02678C21.3114 3.2939 19.4151 2.91669 17.5 2.91669M16.0416 24.7917H18.9583V16.0417H16.0416V24.7917Z" fill="#DDE2EF"/>
</svg>
