<svg width="150" height="150" viewBox="0 0 150 150" fill="none" xmlns="http://www.w3.org/2000/svg">
<path fill-rule="evenodd" clip-rule="evenodd" d="M31.1563 12.5C22.5938 12.5 16.2625 19.9938 16.55 28.1125C16.8188 35.925 16.4687 46.0313 13.925 54.275C11.3625 62.5375 7.05 67.775 0 68.45V76.0437C7.05 76.7125 11.3688 81.95 13.9187 90.2188C16.4687 98.4625 16.8188 108.569 16.5438 116.375C16.2625 124.5 22.5938 131.994 31.1563 131.994H118.856C127.419 131.994 133.75 124.5 133.463 116.375C133.194 108.569 133.544 98.4625 136.088 90.2188C138.644 81.95 142.95 76.7187 150 76.0437V68.45C142.95 67.775 138.644 62.5375 136.088 54.275C133.544 46.025 133.194 35.9188 133.463 28.1125C133.75 19.9875 127.413 12.5 118.856 12.5H31.1563ZM101.688 86.0563C101.688 97.2438 93.3438 104.025 79.5 104.025H55.9313C55.2566 104.025 54.6096 103.757 54.1325 103.28C53.6555 102.803 53.3875 102.156 53.3875 101.481V43.0063C53.3892 42.3327 53.6579 41.6873 54.1348 41.2116C54.6116 40.7359 55.2577 40.4687 55.9313 40.4687H79.3688C90.9125 40.4687 98.4937 46.7188 98.4937 56.325C98.4937 63.0625 93.3938 69.0938 86.9 70.1563V70.5063C95.7438 71.475 101.694 77.6 101.694 86.0563H101.688ZM76.9375 48.525H63.5V67.5125H74.8187C83.5687 67.5125 88.3937 63.9875 88.3937 57.6875C88.3937 51.7875 84.2438 48.525 76.9375 48.525ZM63.5 75.0437V95.9625H77.4375C86.5438 95.9625 91.375 92.3063 91.375 85.4375C91.375 78.5625 86.4125 75.0437 76.85 75.0437H63.5V75.0437Z" fill="#DDE2EF"/>
</svg>
