<svg width="35" height="35" viewBox="0 0 35 35" fill="none" xmlns="http://www.w3.org/2000/svg">
<path d="M27.7083 27.7083H7.29167V7.29167H27.7083M27.7083 4.375H7.29167C6.51812 4.375 5.77625 4.68229 5.22927 5.22927C4.68229 5.77625 4.375 6.51812 4.375 7.29167V27.7083C4.375 28.4819 4.68229 29.2237 5.22927 29.7707C5.77625 30.3177 6.51812 30.625 7.29167 30.625H27.7083C28.4819 30.625 29.2237 30.3177 29.7707 29.7707C30.3177 29.2237 30.625 28.4819 30.625 27.7083V7.29167C30.625 6.51812 30.3177 5.77625 29.7707 5.22927C29.2237 4.68229 28.4819 4.375 27.7083 4.375ZM24.0625 23.6979C24.0625 21.5104 19.6875 20.4167 17.5 20.4167C15.3125 20.4167 10.9375 21.5104 10.9375 23.6979V24.7917H24.0625M17.5 17.8646C18.3702 17.8646 19.2048 17.5189 19.8202 16.9035C20.4355 16.2882 20.7813 15.4536 20.7813 14.5833C20.7813 13.7131 20.4355 12.8785 19.8202 12.2631C19.2048 11.6478 18.3702 11.3021 17.5 11.3021C16.6298 11.3021 15.7952 11.6478 15.1798 12.2631C14.5645 12.8785 14.2188 13.7131 14.2188 14.5833C14.2188 15.4536 14.5645 16.2882 15.1798 16.9035C15.7952 17.5189 16.6298 17.8646 17.5 17.8646Z" fill="#DDE2EF"/>
</svg>
