<svg width="100" height="100" viewBox="0 0 100 100" fill="none" xmlns="http://www.w3.org/2000/svg">
<path d="M33.3333 16.6668V66.6668C33.3333 68.877 34.2113 70.9966 35.7741 72.5594C37.3369 74.1222 39.4565 75.0002 41.6666 75.0002H75C77.2101 75.0002 79.3297 74.1222 80.8925 72.5594C82.4553 70.9966 83.3333 68.877 83.3333 66.6668V30.1752C83.3332 29.065 83.1112 27.966 82.6805 26.9428C82.2497 25.9197 81.6189 24.9928 80.825 24.2168L67.0125 10.7085C65.4557 9.18624 63.3649 8.33377 61.1875 8.3335H41.6666C39.4565 8.3335 37.3369 9.21147 35.7741 10.7743C34.2113 12.3371 33.3333 14.4567 33.3333 16.6668V16.6668Z" stroke="#DDE2EF" stroke-width="8" stroke-linecap="round" stroke-linejoin="round"/>
<path d="M66.6667 75.0003V83.3337C66.6667 85.5438 65.7887 87.6634 64.2259 89.2262C62.6631 90.789 60.5435 91.667 58.3333 91.667H25C22.7899 91.667 20.6702 90.789 19.1074 89.2262C17.5446 87.6634 16.6667 85.5438 16.6667 83.3337V37.5003C16.6667 35.2902 17.5446 33.1706 19.1074 31.6078C20.6702 30.045 22.7899 29.167 25 29.167H33.3333" stroke="#DDE2EF" stroke-width="8" stroke-linecap="round" stroke-linejoin="round"/>
</svg>
