<svg width="100" height="100" viewBox="0 0 100 100" fill="none" xmlns="http://www.w3.org/2000/svg">
<g clip-path="url(#clip0_6_42)">
<path d="M89.8056 16.6665C89.427 16.6275 89.0453 16.6275 88.6667 16.6665H10.8889C10.3904 16.6741 9.89523 16.7489 9.41669 16.8887L49.5556 56.8609L89.8056 16.6665Z" fill="#DDE2EF"/>
<path d="M93.9166 20.5278L53.4722 60.8056C52.4313 61.8403 51.0232 62.4211 49.5555 62.4211C48.0878 62.4211 46.6798 61.8403 45.6389 60.8056L5.55553 20.8334C5.4323 21.2863 5.36697 21.753 5.36108 22.2223V77.7778C5.36108 79.2513 5.9464 80.6643 6.98827 81.7062C8.03014 82.7481 9.44321 83.3334 10.9166 83.3334H88.6944C90.1678 83.3334 91.5809 82.7481 92.6228 81.7062C93.6647 80.6643 94.25 79.2513 94.25 77.7778V22.2223C94.2279 21.6435 94.1154 21.0718 93.9166 20.5278ZM14.7222 77.7778H10.8611V73.8056L31.0555 53.7778L34.9722 57.6945L14.7222 77.7778ZM88.6389 77.7778H84.75L64.5 57.6945L68.4166 53.7778L88.6111 73.8056L88.6389 77.7778Z" fill="#DDE2EF"/>
</g>
<defs>
<clipPath id="clip0_6_42">
<rect width="100" height="100" fill="white"/>
</clipPath>
</defs>
</svg>
