<svg width="151" height="150" viewBox="0 0 151 150" fill="none" xmlns="http://www.w3.org/2000/svg">
<g clip-path="url(#clip0_25_84)">
<path d="M147.669 68.3158L82.175 2.8314C81.2783 1.93423 80.2136 1.22253 79.0417 0.73696C77.8698 0.251389 76.6138 0.00146484 75.3453 0.00146484C74.0768 0.00146484 72.8208 0.251389 71.6489 0.73696C70.4771 1.22253 69.4123 1.93423 68.5156 2.8314L54.9219 16.4252L72.1719 33.6752C74.2063 32.9806 76.395 32.8719 78.4882 33.3615C80.5814 33.8512 82.4948 34.9195 84.01 36.4445C85.5252 37.9694 86.5811 39.8896 87.0573 41.986C87.5335 44.0823 87.4108 46.2702 86.7031 48.3002L103.325 64.9314C105.784 64.0655 108.465 64.0629 110.926 64.924C113.387 65.785 115.481 67.4584 116.864 69.6686C118.247 71.8788 118.836 74.494 118.534 77.0836C118.232 79.6733 117.057 82.0829 115.203 83.9158C113.326 85.8043 110.852 86.9826 108.202 87.2493C105.553 87.516 102.893 86.8547 100.678 85.3782C98.4618 83.9018 96.8273 81.7018 96.0534 79.1541C95.2795 76.6064 95.4142 73.869 96.4344 71.4095L80.9375 55.9033V96.7127C83.293 97.8786 85.1778 99.8167 86.2776 102.204C87.3775 104.591 87.6259 107.283 86.9816 109.831C86.3373 112.379 84.8391 114.63 82.7368 116.207C80.6345 117.784 78.055 118.594 75.4284 118.5C72.8017 118.406 70.2865 117.415 68.3021 115.691C66.3177 113.968 64.9838 111.617 64.5229 109.029C64.062 106.441 64.5019 103.774 65.7692 101.471C67.0366 99.1688 69.0548 97.3701 71.4875 96.3751V55.1908C70.084 54.6157 68.8081 53.7684 67.7336 52.6979C66.659 51.6274 65.8069 50.3548 65.2265 48.9534C64.6461 47.5521 64.3488 46.0497 64.3518 44.5329C64.3547 43.0161 64.6579 41.5149 65.2437 40.1158L48.2469 23.1095L3.34062 68.0158C2.44345 68.9125 1.73175 69.9772 1.24618 71.1491C0.760606 72.3209 0.510681 73.577 0.510681 74.8455C0.510681 76.1139 0.760606 77.37 1.24618 78.5419C1.73175 79.7137 2.44345 80.7784 3.34062 81.6751L68.8344 147.169C69.7311 148.066 70.7958 148.778 71.9677 149.263C73.1395 149.749 74.3956 149.999 75.6641 149.999C76.9325 149.999 78.1886 149.749 79.3604 149.263C80.5323 148.778 81.597 148.066 82.4938 147.169L147.678 81.9845C149.488 80.1723 150.504 77.7159 150.504 75.1548C150.504 72.5938 149.488 70.1374 147.678 68.3252" fill="#DDE2EF"/>
</g>
<defs>
<clipPath id="clip0_25_84">
<rect width="150" height="150" fill="white" transform="translate(0.5)"/>
</clipPath>
</defs>
</svg>
