<svg width="151" height="150" viewBox="0 0 151 150" fill="none" xmlns="http://www.w3.org/2000/svg">
<g clip-path="url(#clip0_25_107)">
<path fill-rule="evenodd" clip-rule="evenodd" d="M75.5 0C34.0625 0 0.5 33.5625 0.5 75C0.5 108.188 21.9688 136.219 51.7812 146.156C55.5312 146.812 56.9375 144.562 56.9375 142.594C56.9375 140.812 56.8438 134.906 56.8438 128.625C38 132.094 33.125 124.031 31.625 119.812C30.7812 117.656 27.125 111 23.9375 109.219C21.3125 107.812 17.5625 104.344 23.8438 104.25C29.75 104.156 33.9688 109.688 35.375 111.938C42.125 123.281 52.9062 120.094 57.2188 118.125C57.875 113.25 59.8438 109.969 62 108.094C45.3125 106.219 27.875 99.75 27.875 71.0625C27.875 62.9062 30.7812 56.1563 35.5625 50.9063C34.8125 49.0313 32.1875 41.3438 36.3125 31.0312C36.3125 31.0312 42.5937 29.0625 56.9375 38.7188C62.9375 37.0312 69.3125 36.1875 75.6875 36.1875C82.0625 36.1875 88.4375 37.0312 94.4375 38.7188C108.781 28.9688 115.062 31.0312 115.062 31.0312C119.188 41.3438 116.563 49.0313 115.813 50.9063C120.594 56.1563 123.5 62.8125 123.5 71.0625C123.5 99.8438 105.969 106.219 89.2812 108.094C92 110.438 94.3438 114.938 94.3438 121.969C94.3438 132 94.25 140.062 94.25 142.594C94.25 144.562 95.6562 146.906 99.4062 146.156C114.295 141.13 127.232 131.561 136.398 118.796C145.563 106.032 150.496 90.7143 150.5 75C150.5 33.5625 116.938 0 75.5 0Z" fill="#DDE2EF"/>
</g>
<defs>
<clipPath id="clip0_25_107">
<rect width="150" height="150" fill="white" transform="translate(0.5)"/>
</clipPath>
</defs>
</svg>
