<svg width="200" height="200" viewBox="0 0 200 200" fill="none" xmlns="http://www.w3.org/2000/svg">
<path d="M42.3333 0H51.35V8.90833H59.6V0H68.6167V26.9667H59.6V17.9417H51.35V26.9667H42.3417V0H42.3333ZM80.4667 8.94167H72.5333V0H97.425V8.94167H89.4833V26.9667H80.4667V8.94167ZM101.375 0H110.775L116.558 9.475L122.333 0H131.733V26.9667H122.758V13.6L116.558 23.1917H116.4L110.192 13.6083V26.9667H101.375V0ZM136.217 0H145.242V18.0583H157.908V26.975H136.217V0Z" fill="#DDE2EF"/>
<path fill-rule="evenodd" clip-rule="evenodd" d="M42.05 183.933L25 39.3081H175L157.942 183.916L99.9167 200L42.05 183.933ZM76.525 104.766L74.9083 86.5998H142.783L144.367 68.8664H55.5333L60.3167 122.508H121.792L119.733 145.508L99.95 150.858H99.9333L80.1833 145.525L78.9167 131.383H61.1L63.5833 159.233L99.9167 169.316L136.308 159.233L140.742 109.533L141.175 104.775H76.525V104.766Z" fill="#DDE2EF"/>
</svg>
