<svg width="200" height="200" viewBox="0 0 200 200" fill="none" xmlns="http://www.w3.org/2000/svg">
<g clip-path="url(#clip0_23_104)">
<path fill-rule="evenodd" clip-rule="evenodd" d="M200 0H0V200H200V0ZM106.667 106.667C106.667 99.5942 109.476 92.8115 114.477 87.8105C119.478 82.8095 126.261 80 133.333 80H148.893C162.387 80 173.333 90.9333 173.333 104.44V106.667H160V104.44C160 102.981 159.713 101.537 159.155 100.19C158.596 98.8421 157.778 97.6177 156.747 96.5864C155.716 95.555 154.491 94.7369 153.144 94.1788C151.796 93.6206 150.352 93.3333 148.893 93.3333H133.333C129.797 93.3333 126.406 94.7381 123.905 97.2386C121.405 99.7391 120 103.13 120 106.667C120 110.203 121.405 113.594 123.905 116.095C126.406 118.595 129.797 120 133.333 120H146.667C153.739 120 160.522 122.81 165.523 127.81C170.524 132.811 173.333 139.594 173.333 146.667C173.333 153.739 170.524 160.522 165.523 165.523C160.522 170.524 153.739 173.333 146.667 173.333H133.333C126.261 173.333 119.478 170.524 114.477 165.523C109.476 160.522 106.667 153.739 106.667 146.667H120C120 150.203 121.405 153.594 123.905 156.095C126.406 158.595 129.797 160 133.333 160H146.667C150.203 160 153.594 158.595 156.095 156.095C158.595 153.594 160 150.203 160 146.667C160 143.13 158.595 139.739 156.095 137.239C153.594 134.738 150.203 133.333 146.667 133.333H133.333C126.261 133.333 119.478 130.524 114.477 125.523C109.476 120.522 106.667 113.739 106.667 106.667ZM80 80V146.667C80 150.203 78.5952 153.594 76.0948 156.095C73.5943 158.595 70.2029 160 66.6667 160C63.1304 160 59.7391 158.595 57.2386 156.095C54.7381 153.594 53.3333 150.203 53.3333 146.667H40C40 153.739 42.8095 160.522 47.8105 165.523C52.8115 170.524 59.5942 173.333 66.6667 173.333C73.7391 173.333 80.5219 170.524 85.5228 165.523C90.5238 160.522 93.3333 153.739 93.3333 146.667V80H80Z" fill="#DDE2EF"/>
</g>
<defs>
<clipPath id="clip0_23_104">
<rect width="200" height="200" rx="100" fill="white"/>
</clipPath>
</defs>
</svg>
