<svg width="150" height="150" viewBox="0 0 150 150" fill="none" xmlns="http://www.w3.org/2000/svg">
<g clip-path="url(#clip0_102_86)">
<path d="M83.1313 35.0062C79.2063 25.4562 79.7563 14.7125 85.425 6.06875L89.6625 0C81.825 14.6875 89.2875 32.725 101.288 42.1813C104.499 44.6944 108.078 46.6971 111.9 48.1187C112.925 48.4937 114.088 48.8938 115.15 49.1625C128.563 52.5375 139.494 50.2063 146 40.4813C145.8 40.7813 145.544 41.2563 145.219 41.8563C142.319 47.2313 133.831 62.9625 109.219 58.025C108.75 57.9313 108.3 57.775 107.85 57.6312L107.45 57.4938L107.163 57.4C107.03 57.3541 106.897 57.3104 106.763 57.2688C106.398 57.1433 106.035 57.012 105.675 56.875C95.7688 53.1 87.275 45.15 83.1313 35.0062V35.0062Z" fill="#DDE2EF"/>
<path d="M50.75 18.5376C41.1437 32.8813 41.6687 52.0876 49.1625 67.2626C50.5481 70.0863 52.1399 72.8041 53.925 75.3938C55.2312 77.3501 56.6687 79.5188 58.35 81.0313C59.0437 81.8251 59.7687 82.5938 60.5062 83.3501L60.9312 83.7876L61.075 83.9313C61.8211 84.6857 62.5859 85.4213 63.3687 86.1376L63.375 86.1438L63.3875 86.1563C64.3322 87.0111 65.3014 87.8386 66.2937 88.6376L66.5437 88.8376C67.4187 89.5376 68.3125 90.2251 69.2312 90.8813L69.2687 90.9063L69.3125 90.9376C69.6062 91.1501 69.9062 91.3563 70.2062 91.5563L70.5375 91.7813C70.7336 91.9112 70.9274 92.0445 71.1187 92.1813C71.775 92.6188 72.4375 93.0376 73.1125 93.4501L73.3 93.5563L73.3937 93.6188C74.1175 94.0505 74.8489 94.4693 75.5875 94.8751L75.7812 94.9751L76.0312 95.1126C76.3562 95.2876 76.6812 95.4688 77.0187 95.6376L77.2062 95.7313C78.173 96.2236 79.1525 96.6904 80.1437 97.1313L80.3437 97.2126C81.274 97.6223 82.2139 98.0099 83.1625 98.3751L83.35 98.4438C83.9937 98.6938 84.6375 98.9188 85.2875 99.1438L85.6125 99.2563L86.1625 99.4376C86.4062 99.5126 86.65 99.6001 86.8875 99.6813C87.5687 99.9188 88.25 100.15 88.9625 100.275C138.55 108.8 150 69.1751 150 69.1751C139.681 84.6001 119.694 91.9626 98.3687 86.2126C97.4245 85.9545 96.4867 85.6731 95.5562 85.3688C95.3044 85.2912 95.0543 85.2078 94.8062 85.1188L94.7125 85.0876C94.054 84.8666 93.3997 84.6333 92.75 84.3876L92.7312 84.3751C91.6528 83.967 90.5857 83.5293 89.5312 83.0626L89.1812 82.9063C87.9524 82.3508 86.7433 81.7525 85.5562 81.1126L85.2937 80.9751L84.5437 80.5751C83.859 80.1925 83.1818 79.7966 82.5125 79.3876C81.1905 78.5802 79.898 77.7255 78.6375 76.8251C77.7272 76.168 76.8332 75.4886 75.9562 74.7876L75.7375 74.6063C75.6098 74.503 75.4827 74.3988 75.3562 74.2938C66.0187 66.6438 58.6187 56.1876 55.1062 44.3376C51.4187 32.0376 52.2125 18.2376 58.6 7.0376L50.75 18.5376Z" fill="#DDE2EF"/>
<path d="M9.525 35.2311C-3.75 55.0436 -2.1 80.8248 8.04375 101.875C8.23125 102.281 8.4375 102.681 8.6375 103.075L8.7875 103.375L8.975 103.744C9.1322 104.071 9.29894 104.394 9.475 104.712L9.55625 104.869L9.99375 105.681L10.0875 105.85C10.4 106.425 10.725 107 11.0562 107.575L11.1625 107.762C11.6634 108.636 12.1864 109.497 12.7312 110.344L12.8437 110.531L13.2125 111.112C13.7375 111.925 14.275 112.744 14.8375 113.55V113.556C14.8508 113.576 14.8654 113.595 14.8812 113.612L15.0312 113.819L15.1562 113.994C15.6437 114.681 16.1375 115.369 16.6437 116.044L17.2062 116.781C18.4313 118.369 19.6984 119.923 21.0062 121.444L21.0437 121.487L21.075 121.519L21.1187 121.569C22.4447 123.062 23.8162 124.515 25.2312 125.925L25.4187 126.112L25.8625 126.55C26.5708 127.242 27.2918 127.921 28.025 128.587L28.2312 128.775L28.3937 128.912C29.1759 129.611 29.9677 130.298 30.7687 130.975L31.1187 131.269C31.65 131.706 32.1875 132.144 32.7312 132.569L33.5875 133.25C34.1875 133.706 34.7875 134.156 35.3937 134.594L35.4937 134.669L36.0562 135.081L36.2312 135.206C36.7812 135.606 37.3375 135.981 37.9 136.356L37.9875 136.419C38.2397 136.588 38.4897 136.761 38.7375 136.937C39.7809 137.622 40.8373 138.287 41.9062 138.931L42.2437 139.131C43.1901 139.69 44.1465 140.232 45.1125 140.756L45.4437 140.937L45.8125 141.137C46.1812 141.337 46.5437 141.537 46.9187 141.731L47.075 141.806L47.2625 141.9L47.475 142.006C47.6 142.069 47.7312 142.131 47.8625 142.206C48.6375 142.587 49.4125 142.962 50.2 143.331L50.4938 143.462L50.6937 143.556C52.6468 144.445 54.6337 145.259 56.65 145.994L56.7125 146.012L56.975 146.112C58.3998 146.625 59.8378 147.1 61.2875 147.537C62.0125 147.781 62.7438 148.019 63.4938 148.162C127.725 160.325 146.381 108.1 146.381 108.1C130.712 129.287 102.9 134.881 76.5437 128.656C75.5521 128.415 74.5719 128.13 73.6063 127.8L72.8688 127.569C71.9188 127.269 70.975 126.944 70.0375 126.612L69.65 126.469C68.8062 126.156 67.9813 125.844 67.15 125.506L66.45 125.219C65.545 124.848 64.6469 124.46 63.7562 124.056L63.4687 123.931C62.6219 123.538 61.7801 123.134 60.9438 122.719L60.6875 122.581C60.5538 122.517 60.4204 122.453 60.2875 122.387L58.95 121.681L58.525 121.456C58.3859 121.38 58.2463 121.305 58.1062 121.231L57.3562 120.819C56.6437 120.425 55.9437 120.006 55.2437 119.587L54.975 119.431L54.5375 119.181C53.4495 118.51 52.3743 117.818 51.3125 117.106L51.0437 116.919C48.3764 115.14 45.8196 113.201 43.3875 111.112C42.6444 110.484 41.911 109.844 41.1875 109.194L41.0875 109.1C40.1374 108.226 39.2039 107.334 38.2875 106.425C37.7582 105.902 37.2373 105.371 36.725 104.831L36.5125 104.619C35.703 103.773 34.9112 102.91 34.1375 102.031L34.1 101.994L34.0875 101.975C33.425 101.225 32.775 100.45 32.1375 99.6748L31.625 99.0436C30.9707 98.2322 30.331 97.4091 29.7062 96.5748C29.1562 95.8248 28.6125 95.0873 28.0812 94.3311C13.4562 73.6186 8.2 45.0436 19.8937 21.5811L9.525 35.2311Z" fill="#DDE2EF"/>
</g>
<defs>
<clipPath id="clip0_102_86">
<rect width="150" height="150" fill="white"/>
</clipPath>
</defs>
</svg>
