<svg width="100" height="100" viewBox="0 0 100 100" fill="none" xmlns="http://www.w3.org/2000/svg">
<path fill-rule="evenodd" clip-rule="evenodd" d="M4.16669 11.8248C4.16669 9.79373 4.97355 7.8458 6.40976 6.40959C7.84598 4.97337 9.79391 4.16651 11.825 4.16651H88.1667C89.1732 4.16487 90.1702 4.36178 91.1006 4.74596C92.031 5.13014 92.8764 5.69405 93.5886 6.40542C94.3007 7.11678 94.8655 7.96161 95.2507 8.89156C95.6359 9.8215 95.8339 10.8183 95.8334 11.8248V88.1665C95.8344 89.1733 95.637 90.1704 95.2524 91.1007C94.8678 92.0311 94.3034 92.8765 93.5918 93.5886C92.8801 94.3007 92.035 94.8655 91.1048 95.2506C90.1746 95.6358 89.1776 95.8337 88.1708 95.8332H11.825C10.819 95.8332 9.82276 95.6349 8.89334 95.2498C7.96392 94.8647 7.11948 94.3002 6.40829 93.5886C5.69709 92.877 5.13307 92.0323 4.74845 91.1027C4.36383 90.173 4.16614 89.1767 4.16669 88.1707V11.8248ZM40.45 39.1165H52.8625V45.3498C54.6542 41.7665 59.2375 38.5415 66.125 38.5415C79.3292 38.5415 82.4584 45.679 82.4584 58.7748V83.0332H69.0959V61.7582C69.0959 54.2998 67.3042 50.0915 62.7542 50.0915C56.4417 50.0915 53.8167 54.629 53.8167 61.7582V83.0332H40.45V39.1165ZM17.5334 82.4623H30.9V38.5415H17.5334V82.4582V82.4623ZM32.8125 24.2165C32.8377 25.361 32.6341 26.499 32.2135 27.5637C31.793 28.6284 31.164 29.5983 30.3635 30.4166C29.563 31.235 28.6071 31.8851 27.5519 32.329C26.4967 32.7729 25.3635 33.0016 24.2188 33.0016C23.074 33.0016 21.9408 32.7729 20.8856 32.329C19.8304 31.8851 18.8746 31.235 18.0741 30.4166C17.2736 29.5983 16.6446 28.6284 16.224 27.5637C15.8035 26.499 15.5998 25.361 15.625 24.2165C15.6745 21.9701 16.6016 19.8323 18.2079 18.261C19.8141 16.6898 21.9718 15.8099 24.2188 15.8099C26.4658 15.8099 28.6234 16.6898 30.2297 18.261C31.8359 19.8323 32.7631 21.9701 32.8125 24.2165Z" fill="#DDE2EF"/>
</svg>
