<svg width="222" height="222" viewBox="0 0 222 222" fill="none" xmlns="http://www.w3.org/2000/svg">
<g clip-path="url(#clip0_23_84)">
<mask id="mask0_23_84" style="mask-type:alpha" maskUnits="userSpaceOnUse" x="0" y="0" width="222" height="222">
<path d="M111 222C172.304 222 222 172.304 222 111C222 49.6964 172.304 0 111 0C49.6964 0 0 49.6964 0 111C0 172.304 49.6964 222 111 222Z" fill="white"/>
</mask>
<g mask="url(#mask0_23_84)">
<path d="M184.394 194.274L85.2749 66.6001H66.6V155.363H81.5399V85.5742L172.666 203.309C176.771 200.561 180.689 197.543 184.394 194.274V194.274Z" fill="url(#paint0_linear_23_84)"/>
<path d="M141.834 66.6001H156.634V155.4H141.834V66.6001Z" fill="url(#paint1_linear_23_84)"/>
</g>
</g>
<defs>
<linearGradient id="paint0_linear_23_84" x1="132.132" y1="143.683" x2="171.468" y2="192.439" gradientUnits="userSpaceOnUse">
<stop stop-color="#DDE2EF"/>
<stop offset="1" stop-color="white" stop-opacity="0"/>
</linearGradient>
<linearGradient id="paint1_linear_23_84" x1="149.234" y1="66.6001" x2="148.983" y2="131.812" gradientUnits="userSpaceOnUse">
<stop stop-color="#DDE2EF"/>
<stop offset="1" stop-color="white" stop-opacity="0"/>
</linearGradient>
<clipPath id="clip0_23_84">
<rect width="222" height="222" fill="white"/>
</clipPath>
</defs>
</svg>
