<svg width="151" height="150" viewBox="0 0 151 150" fill="none" xmlns="http://www.w3.org/2000/svg">
<path d="M126.406 38.1064L80.8701 10.7959C79.2345 9.86343 77.3842 9.37305 75.5015 9.37305C73.6187 9.37305 71.7684 9.86343 70.1328 10.7959L24.5937 38.1035C22.9526 39.1092 21.5987 40.5211 20.6626 42.2029C19.7265 43.8846 19.24 45.7794 19.25 47.7041V102.246C19.2402 104.172 19.7267 106.068 20.6627 107.751C21.5987 109.434 22.9525 110.848 24.5937 111.855L36.5352 118.986L36.6025 119.024C42.6318 122.109 44.9404 122.109 47.6152 122.109C57.0312 122.109 62.8818 116.016 62.8818 106.204V53.3203C62.8873 52.6601 62.6307 52.0246 62.1682 51.5534C61.7057 51.0822 61.0753 50.8136 60.415 50.8066H53.8584C53.1982 50.8136 52.5677 51.0822 52.1052 51.5534C51.6428 52.0246 51.3861 52.6601 51.3916 53.3203V106.204C51.4155 106.961 51.2432 107.712 50.8916 108.382C50.54 109.053 50.0209 109.622 49.3848 110.033C47.6562 111.088 45.1455 110.865 42.3125 109.403L30.8691 102.516C30.8253 102.486 30.7896 102.446 30.765 102.398C30.7405 102.351 30.728 102.299 30.7285 102.246V48.4746C30.7304 48.4128 30.7471 48.3523 30.7772 48.2983C30.8072 48.2443 30.8498 48.1982 30.9014 48.1641L75.3857 20.918C75.419 20.9015 75.4556 20.8929 75.4927 20.8929C75.5298 20.8929 75.5664 20.9015 75.5996 20.918L120.11 48.1641C120.161 48.201 120.202 48.2495 120.23 48.3056C120.258 48.3617 120.272 48.4236 120.271 48.4863V102.246C120.273 102.302 120.261 102.357 120.239 102.407C120.216 102.458 120.182 102.503 120.14 102.539L75.5908 129.097C75.5149 129.123 75.4323 129.123 75.3564 129.097L63.9805 122.341C63.6427 122.12 63.2526 121.993 62.8497 121.972C62.4468 121.95 62.0455 122.036 61.6865 122.221L61.5869 122.279C58.4463 124.14 57.6025 124.623 54.6904 125.684C54.2158 125.856 53.0996 126.27 53.0029 127.374C52.9062 128.479 53.9668 129.264 54.9102 129.812L70.1152 139.148C71.7353 140.119 73.5881 140.632 75.4766 140.634H75.6465C77.4878 140.605 79.2891 140.093 80.8701 139.148L126.406 111.864C128.047 110.853 129.4 109.438 130.335 107.754C131.271 106.069 131.758 104.173 131.75 102.246V47.7041C131.759 45.7799 131.272 43.8859 130.336 42.2047C129.4 40.5236 128.047 39.1121 126.406 38.1064Z" fill="#DDE2EF"/>
<path d="M90.6992 93.1787C79.7744 93.1787 77.4453 90.126 76.7539 85.1982C76.676 84.6115 76.3901 84.0723 75.9481 83.6787C75.5061 83.2851 74.9375 83.0633 74.3457 83.0537H68.5449C67.8911 83.0676 67.2695 83.3398 66.816 83.8109C66.3624 84.282 66.114 84.9136 66.125 85.5674C66.125 89.8389 67.625 103.781 90.7109 103.781C97.8535 103.781 103.795 102.111 107.888 98.9502C111.98 95.7891 114.172 91.1894 114.172 85.708C114.172 74.707 106.994 71.6953 92.8584 69.7266C78.4883 67.7285 78.4883 66.7119 78.4883 64.4854C78.4883 62.8828 78.4883 59.1299 88.8769 59.1299C96.2685 59.1299 100.227 60.0645 101.492 64.9893C101.604 65.5353 101.899 66.0266 102.329 66.382C102.758 66.7373 103.296 66.9354 103.853 66.9434H109.675C110.018 66.94 110.356 66.8635 110.667 66.719C110.979 66.5745 111.255 66.3654 111.479 66.1055C111.927 65.583 112.15 64.9049 112.101 64.2188C111.348 53.8037 103.733 48.5215 88.8857 48.5215C75.3916 48.5215 67.3379 54.6006 67.3379 64.7812C67.3379 75.9434 75.6846 79.0986 88.2236 80.4053C102.872 81.9199 102.872 84.1289 102.872 86.0801C102.881 89.1211 101.618 93.1787 90.6992 93.1787Z" fill="#DDE2EF"/>
</svg>
