<svg width="35" height="35" viewBox="0 0 35 35" fill="none" xmlns="http://www.w3.org/2000/svg">
<g clip-path="url(#clip0_105_84)">
<path fill-rule="evenodd" clip-rule="evenodd" d="M20.7812 31.7187L7.65625 26.25V8.75L20.7812 3.28125V31.7187ZM5.72031 28.9975C5.32185 28.8313 4.98148 28.5509 4.74209 28.1916C4.50269 27.8323 4.37496 27.4102 4.375 26.9784V8.02156C4.37496 7.58982 4.50269 7.16772 4.74209 6.80843C4.98148 6.44913 5.32185 6.16872 5.72031 6.0025L19.5191 0.251559C20.0178 0.0437323 20.5601 -0.0377342 21.0978 0.0143936C21.6356 0.0665213 22.1522 0.25063 22.6017 0.550373C23.0512 0.850115 23.4197 1.25622 23.6745 1.73261C23.9294 2.20901 24.0627 2.74097 24.0625 3.28125V4.375H26.7969C28.91 4.375 30.625 6.08781 30.625 8.20312V26.7969C30.625 27.8122 30.2217 28.7859 29.5038 29.5038C28.7859 30.2217 27.8122 30.625 26.7969 30.625H24.0625V31.7187C24.0627 32.259 23.9294 32.791 23.6745 33.2674C23.4197 33.7438 23.0512 34.1499 22.6017 34.4496C22.1522 34.7494 21.6356 34.9335 21.0978 34.9856C20.5601 35.0377 20.0178 34.9563 19.5191 34.7484L5.72031 28.9975ZM24.0625 27.3437H26.7969C26.9419 27.3437 27.081 27.2861 27.1836 27.1836C27.2861 27.081 27.3438 26.9419 27.3438 26.7969V8.20312C27.3438 8.05808 27.2861 7.91898 27.1836 7.81642C27.081 7.71386 26.9419 7.65625 26.7969 7.65625H24.0625V27.3437Z" fill="#DDE2EF"/>
</g>
<defs>
<clipPath id="clip0_105_84">
<rect width="35" height="35" fill="white"/>
</clipPath>
</defs>
</svg>
