<svg width="223" height="198" viewBox="0 0 223 198" fill="none" xmlns="http://www.w3.org/2000/svg">
<path d="M183.35 64.1758C180.977 63.3632 178.584 62.6105 176.173 61.9182C176.578 60.2665 176.951 58.6348 177.282 57.0318C182.715 30.7082 179.163 9.50141 167.03 2.51911C155.396 -4.17458 136.371 2.80511 117.156 19.4933C115.262 21.1409 113.411 22.836 111.603 24.577C110.393 23.4193 109.161 22.2841 107.908 21.1719C87.7705 3.32844 67.5855 -4.19197 55.4652 2.81033C43.8421 9.52488 40.4005 29.4608 45.2925 54.4082C45.7792 56.879 46.3288 59.3371 46.9406 61.78C44.0834 62.5902 41.3264 63.4525 38.6879 64.3705C15.0778 72.5855 0 85.4591 0 98.8126C0 112.604 16.1867 126.438 40.7776 134.826C42.7713 135.503 44.7815 136.13 46.8065 136.708C46.1488 139.339 45.565 141.988 45.0556 144.651C40.3917 169.166 44.0338 188.631 55.6254 195.303C67.5977 202.193 87.6921 195.111 107.258 178.042C108.844 176.655 110.396 175.228 111.911 173.763C113.869 175.648 115.879 177.478 117.939 179.252C136.892 195.527 155.61 202.099 167.191 195.409C179.152 188.498 183.039 167.588 177.992 142.148C177.595 140.155 177.149 138.171 176.655 136.2C178.066 135.783 179.451 135.353 180.802 134.906C206.366 126.454 223 112.788 223 98.8126C223 85.4104 207.435 72.4499 183.35 64.1758ZM177.806 125.883C176.586 126.285 175.335 126.674 174.06 127.052C171.238 118.136 167.429 108.655 162.768 98.8587C167.216 89.2962 170.878 79.9364 173.621 71.0781C175.903 71.7371 178.116 72.4316 180.25 73.1645C200.886 80.2546 213.474 90.7358 213.474 98.8126C213.474 107.415 199.879 118.583 177.806 125.883ZM168.647 143.994C170.879 155.243 171.197 165.414 169.719 173.365C168.391 180.51 165.72 185.273 162.417 187.181C155.39 191.241 140.361 185.964 124.153 172.045C122.237 170.396 120.367 168.695 118.545 166.942C124.829 160.084 131.109 152.112 137.238 143.257C148.019 142.302 158.204 140.741 167.44 138.61C167.885 140.395 168.287 142.19 168.647 143.994ZM76.0256 186.48C69.1596 188.899 63.6909 188.969 60.3851 187.067C53.351 183.018 50.4267 167.389 54.4155 146.425C54.8896 143.947 55.4325 141.484 56.0436 139.036C65.1778 141.053 75.2886 142.503 86.0946 143.378C92.2654 152.042 98.7263 160.006 105.238 166.98C103.854 168.316 102.437 169.618 100.989 170.884C92.3368 178.432 83.6668 183.787 76.0256 186.48ZM43.8596 125.83C32.9857 122.121 24.0056 117.3 17.8505 112.04C12.319 107.314 9.52715 102.62 9.52715 98.8126C9.52715 90.7089 21.6327 80.3728 41.8238 73.3479C44.2742 72.496 46.8387 71.6918 49.4999 70.9373C52.2909 79.9955 55.9512 89.4666 60.3685 99.0438C55.8937 108.763 52.1811 118.385 49.3631 127.55C47.5148 127.022 45.6797 126.448 43.8596 125.83ZM54.642 52.5818C50.4511 31.2081 53.2343 15.085 60.2387 11.0383C67.6988 6.72831 84.1956 12.8735 101.583 28.2811C102.717 29.2881 103.833 30.3155 104.929 31.3628C98.4501 38.306 92.0485 46.2106 85.9325 54.8238C75.4446 55.7939 65.4052 57.3517 56.1751 59.4389C55.6064 57.1667 55.0952 54.8806 54.642 52.5827V52.5818ZM150.834 76.2861C148.654 72.5281 146.393 68.8173 144.053 65.1564C151.168 66.0544 157.985 67.2462 164.387 68.7032C162.465 74.8509 160.07 81.2777 157.25 87.8671C155.189 83.9646 153.05 80.1035 150.834 76.2861ZM111.607 38.1573C116.001 42.9081 120.402 48.2118 124.73 53.9666C115.95 53.5528 107.154 53.551 98.3735 53.9614C102.706 48.2596 107.145 42.9629 111.607 38.1573ZM72.1283 76.3514C69.9404 80.1379 67.8414 83.975 65.8329 87.8593C63.0593 81.2934 60.6856 74.837 58.7474 68.6023C65.1099 67.1819 71.8949 66.0205 78.9647 65.139C76.5983 68.8222 74.3188 72.5604 72.1283 76.3505V76.3514ZM79.1676 133.163C71.8635 132.349 64.9766 131.247 58.6159 129.865C60.5846 123.519 63.0106 116.926 65.8442 110.219C67.8607 114.106 69.9684 117.945 72.1658 121.734C74.4254 125.628 76.7651 129.443 79.1676 133.163ZM111.87 160.137C107.354 155.276 102.851 149.898 98.4528 144.113C102.723 144.28 107.076 144.365 111.5 144.365C116.045 144.365 120.538 144.264 124.961 144.067C120.619 149.956 116.234 155.342 111.87 160.137ZM157.34 109.876C160.32 116.657 162.833 123.216 164.827 129.453C158.362 130.926 151.381 132.112 144.026 132.992C146.383 129.263 148.665 125.488 150.872 121.668C153.115 117.786 155.272 113.854 157.34 109.876ZM142.62 116.919C139.242 122.775 135.674 128.519 131.922 134.144C125.125 134.624 118.314 134.863 111.5 134.859C104.56 134.859 97.8099 134.644 91.3098 134.223C87.4598 128.612 83.8238 122.857 80.4098 116.971H80.4107C77.0127 111.116 73.8388 105.135 70.8957 99.0395C73.8313 92.9429 76.9956 86.9587 80.3819 81.0995L80.3811 81.1004C83.7661 75.2397 87.373 69.5094 91.1939 63.922C97.8256 63.4212 104.626 63.1604 111.499 63.1604H111.5C118.404 63.1604 125.214 63.4238 131.844 63.928C135.626 69.5071 139.21 75.2177 142.588 81.0491C145.986 86.8954 149.192 92.8504 152.202 98.9047C149.223 105.021 146.027 111.029 142.62 116.919ZM162.272 10.755C169.739 15.0528 172.643 32.3843 167.951 55.1124C167.652 56.5624 167.315 58.0393 166.949 59.5372C157.697 57.4056 147.65 55.8209 137.132 54.8359C131.005 46.128 124.655 38.2112 118.281 31.3576C119.952 29.7507 121.662 28.1855 123.41 26.6633C139.874 12.3658 155.261 6.72048 162.272 10.755ZM111.5 78.9402C122.498 78.9402 131.413 87.8375 131.413 98.8126C131.413 109.788 122.498 118.685 111.5 118.685C100.502 118.685 91.5868 109.788 91.5868 98.8126C91.5868 87.8375 100.502 78.9402 111.5 78.9402Z" fill="#DDE2EF"/>
</svg>
