<svg width="151" height="150" viewBox="0 0 151 150" fill="none" xmlns="http://www.w3.org/2000/svg">
<g clip-path="url(#clip0_25_112)">
<path d="M75.5 0C116.75 0 150.5 33.75 150.5 75C150.5 116.25 116.75 150 75.5 150C34.25 150 0.5 116.25 0.5 75C0.5 33.75 34.25 0 75.5 0ZM60.5 99.8438C61.4375 104.062 61.4375 107.812 60.5 111.094L60.0312 112.5C60.0312 112.969 59.5625 113.438 59.5625 113.438C58.625 115.312 57.6875 116.719 56.2812 118.594C52.0625 123.281 45.9688 125.156 43.1562 123.75C40.3438 122.344 41.75 115.312 46.9062 110.156C52.5312 104.531 60.0312 100.781 60.0312 100.781L60.5 99.8438ZM122.375 31.875C119.094 18.75 97.0625 14.0625 75.9688 21.5625C63.7812 26.25 50.1875 33.2812 40.3438 42.1875C28.625 52.9688 27.2188 62.3438 27.6875 66.0938C30.5 79.6875 49.25 89.0625 57.2188 95.625C54.875 96.5625 38 105 34.25 113.906C30.0312 123.281 34.7188 129.844 38 130.312C47.8438 133.125 58.1562 127.969 63.3125 120C68.4688 112.031 68 102.188 65.6562 97.0312C69.3027 95.9052 73.1788 95.7437 76.9062 96.5625C90.0312 97.9688 92.8438 106.406 91.9062 109.687C90.9688 112.969 88.625 114.844 87.6875 115.781C86.75 116.25 86.2812 116.719 86.75 116.719C86.75 117.187 87.2188 117.188 88.1562 117.188C89.0938 117.188 95.1875 114.375 95.1875 107.812C95.6562 99.8438 87.6875 90.9375 74.0938 90.9375C68.4688 90.9375 64.7188 91.4062 62.375 92.3438C62.375 91.875 61.9062 91.875 61.9062 91.875C53.4688 82.9688 38 76.4062 38.4688 64.2188C38.4688 60 40.3438 48.2812 68.4688 34.2188C91.4375 22.5 110.188 25.7812 113.469 32.8125C118.156 42.6562 103.625 61.4062 79.7188 64.2188C70.3438 65.1562 65.6562 61.875 64.7188 60.4688C63.3125 59.0625 63.3125 59.0625 62.8438 59.0625C61.9063 59.5312 62.375 60.4688 62.8438 61.4062C63.7813 63.2812 66.5938 66.5625 71.75 68.4375C75.9688 69.8438 86.75 70.7812 99.875 65.625C114.406 60 125.656 44.5312 122.375 31.4062V31.875Z" fill="#DDE2EF"/>
</g>
<defs>
<clipPath id="clip0_25_112">
<rect width="150" height="150" fill="white" transform="translate(0.5)"/>
</clipPath>
</defs>
</svg>
