<svg width="150" height="164" viewBox="0 0 150 164" fill="none" xmlns="http://www.w3.org/2000/svg">
<g clip-path="url(#clip0_102_88)">
<path d="M142.855 126.136L76.6227 163.636V134.414L117.859 111.682L142.855 126.136ZM147.395 122.08V43.5341L123.205 57.6545V107.98L147.395 121.943V122.08ZM4.54091 126.136L70.7727 163.636V134.414L29.5364 111.682L4.54091 126.136ZM0 122.08V43.5341L24.1909 57.6545V107.98L0 122.08ZM2.76136 38.475L70.7795 0V28.2477L26.9455 52.4386L2.76136 38.475ZM144.641 38.475L76.6227 0V28.2477L120.45 52.4386L144.641 38.475ZM70.7795 127.759L30.0614 105.348V60.8659L70.8068 84.4023L70.7795 127.759ZM76.6227 127.759L117.368 105.355V60.8727L76.6227 84.4091V127.759ZM32.7886 55.8409L73.6977 33.2727L114.607 55.8409L73.6977 79.3841L32.7886 55.8409Z" fill="#DDE2EF"/>
</g>
<defs>
<clipPath id="clip0_102_88">
<rect width="150" height="163.636" fill="white"/>
</clipPath>
</defs>
</svg>
